<svg width="100" height="100" viewBox="0 0 100 100" fill="none" xmlns="http://www.w3.org/2000/svg">
<path fill-rule="evenodd" clip-rule="evenodd" d="M50 100C77.6142 100 100 77.6142 100 50C100 22.3858 77.6142 0 50 0C22.3858 0 0 22.3858 0 50C0 77.6142 22.3858 100 50 100ZM71.4119 76.7343C71.2783 76.3517 71.0706 75.9991 70.8007 75.6967C70.2566 75.0872 69.4928 74.7185 68.677 74.6716C67.8613 74.6248 67.0603 74.9037 66.4501 75.447L62.3338 79.1223V56.1669C62.3338 55.3492 62.009 54.5649 61.4307 53.9867C60.8525 53.4084 60.0682 53.0836 59.2505 53.0836C58.4327 53.0836 57.6485 53.4084 57.0702 53.9867C56.492 54.5649 56.1672 55.3492 56.1672 56.1669V79.1192L52.0509 75.4378C51.7484 75.1685 51.3959 74.9614 51.0134 74.8284C50.6309 74.6954 50.226 74.639 49.8217 74.6625C49.0052 74.7099 48.241 75.0797 47.6972 75.6906C47.1534 76.3014 46.8746 77.1033 46.922 77.9198C46.9455 78.3241 47.0483 78.7197 47.2247 79.0843C47.4011 79.4488 47.6476 79.775 47.9501 80.0443L52.7107 84.2807C53.5755 85.1452 54.6025 85.8303 55.7326 86.297C56.8628 86.7637 58.074 87.0027 59.2967 87.0003C60.4757 87.0099 61.6449 86.7863 62.7371 86.3423C63.8293 85.8984 64.8229 85.2428 65.6607 84.4133L70.5509 80.0535C70.8537 79.784 71.1003 79.4575 71.2767 79.0926C71.4531 78.7277 71.5559 78.3316 71.5791 77.9269C71.6023 77.5223 71.5455 77.117 71.4119 76.7343ZM68.1998 34.8437C68.5883 35.2392 69.0687 35.5323 69.5982 35.6967C74.9695 37.3275 79.6195 40.7503 82.7728 45.3945C85.9261 50.0386 87.3922 55.6233 86.9265 61.2174C86.5846 65.6678 84.9563 69.9228 82.2398 73.4644C81.7414 74.1129 81.0058 74.5368 80.1948 74.6429C79.3838 74.749 78.5639 74.5286 77.9154 74.0302C77.267 73.5318 76.843 72.7962 76.7369 71.9852C76.6308 71.1742 76.8512 70.3543 77.3497 69.7058C79.3512 67.1193 80.5431 63.9987 80.7752 60.7364C81.1261 56.541 80.0284 52.352 77.6652 48.8678C75.302 45.3835 71.816 42.8145 67.7882 41.5889C66.3015 41.1275 64.9499 40.3099 63.851 39.2073C62.7521 38.1046 61.9391 36.7503 61.4828 35.2619C60.7408 32.7928 59.4909 30.506 57.8133 28.5483C56.1357 26.5906 54.0674 25.0051 51.7411 23.8936C49.4148 22.7822 46.8818 22.1692 44.3047 22.094C41.7276 22.0189 39.1633 22.4833 36.7762 23.4573C34.389 24.4314 32.2319 25.8936 30.443 27.7503C28.6542 29.6069 27.2732 31.817 26.3886 34.2387C25.504 36.6603 25.1353 39.2402 25.3062 41.8127C25.4772 44.3852 26.1839 46.8936 27.3812 49.177C28.1437 50.6013 28.3146 52.2686 27.857 53.818C27.3994 55.3674 26.3501 56.6743 24.9361 57.4557C22.9523 58.4836 21.3401 60.1068 20.3259 62.0976C19.3117 64.0883 18.9464 66.3467 19.2812 68.5557C19.8531 71.1267 21.2724 73.4309 23.3111 75.0983C25.3498 76.7658 27.8898 77.6997 30.5231 77.7503H37.6672C38.4849 77.7503 39.2692 78.0751 39.8474 78.6533C40.4256 79.2316 40.7505 80.0158 40.7505 80.8336C40.7505 81.6513 40.4256 82.4356 39.8474 83.0138C39.2692 83.5921 38.4849 83.9169 37.6672 83.9169H30.5231C26.412 83.8435 22.4497 82.3661 19.2942 79.73C16.1387 77.0938 13.9799 73.4577 13.1762 69.4252C12.6536 65.9543 13.2315 62.4068 14.8286 59.2811C16.4258 56.1554 18.9619 53.6085 22.0809 51.9982C19.4054 47.1303 18.5319 41.4749 19.6142 36.0266C20.669 30.6391 23.4909 25.7574 27.633 22.1546C31.7751 18.5518 37.0007 16.4336 42.4824 16.1357C47.9641 15.8377 53.3885 17.3768 57.8967 20.5094C62.405 23.642 65.7394 28.189 67.372 33.4304C67.5269 33.9627 67.8113 34.4483 68.1998 34.8437Z" fill="#97DAFE"/>
</svg>
